<mxfile host="app.diagrams.net" modified="2023-12-12T08:37:11.092Z" agent="Mozilla/5.0 (Macintosh; Intel Mac OS X 10_15_7) AppleWebKit/605.1.15 (KHTML, like Gecko) Version/17.1.2 Safari/605.1.15" etag="6qi8jQYuC1ScoepH3i1y" version="22.1.7" type="device">
  <diagram name="Page-1" id="C0KfFEjNvRat2zXTtvbp">
    <mxGraphModel dx="954" dy="647" grid="1" gridSize="10" guides="1" tooltips="1" connect="1" arrows="1" fold="1" page="1" pageScale="1" pageWidth="827" pageHeight="1169" math="0" shadow="0">
      <root>
        <mxCell id="0" />
        <mxCell id="1" parent="0" />
        <mxCell id="qQ-SJ7XLCoJ8Rk0PCVsh-2" value="&lt;div style=&quot;font-size: 14px;&quot;&gt;{&lt;/div&gt;&lt;div style=&quot;font-size: 14px;&quot;&gt;&amp;nbsp; &amp;nbsp; &quot;ownerName&quot;: &quot;Todor&quot;,&lt;/div&gt;&lt;div style=&quot;font-size: 14px;&quot;&gt;&amp;nbsp; &amp;nbsp; &quot;ownerSurname&quot;: &quot;Olev&quot;,&lt;/div&gt;&lt;div style=&quot;font-size: 14px;&quot;&gt;&amp;nbsp; &amp;nbsp; &quot;plate&quot;: &quot;E0050MA&quot;&lt;/div&gt;&lt;div style=&quot;font-size: 14px;&quot;&gt;}&lt;/div&gt;" style="text;html=1;strokeColor=none;fillColor=none;align=left;verticalAlign=middle;whiteSpace=wrap;rounded=0;fontSize=14;" vertex="1" parent="1">
          <mxGeometry x="20" y="270" width="180" height="100" as="geometry" />
        </mxCell>
        <mxCell id="qQ-SJ7XLCoJ8Rk0PCVsh-3" value="" style="ellipse;whiteSpace=wrap;html=1;aspect=fixed;sketch=1;curveFitting=1;jiggle=2;" vertex="1" parent="1">
          <mxGeometry x="530" y="250" width="110" height="110" as="geometry" />
        </mxCell>
        <mxCell id="qQ-SJ7XLCoJ8Rk0PCVsh-8" value="" style="whiteSpace=wrap;html=1;aspect=fixed;fillColor=#d5e8d4;strokeColor=#82b366;sketch=1;curveFitting=1;jiggle=2;" vertex="1" parent="1">
          <mxGeometry x="560" y="270" width="20" height="20" as="geometry" />
        </mxCell>
        <mxCell id="qQ-SJ7XLCoJ8Rk0PCVsh-9" value="" style="triangle;whiteSpace=wrap;html=1;fillColor=#fff2cc;strokeColor=#d6b656;sketch=1;curveFitting=1;jiggle=2;" vertex="1" parent="1">
          <mxGeometry x="585" y="296.25" width="10" height="20" as="geometry" />
        </mxCell>
        <mxCell id="qQ-SJ7XLCoJ8Rk0PCVsh-10" value="" style="triangle;whiteSpace=wrap;html=1;rotation=50;fillColor=#f8cecc;strokeColor=#b85450;sketch=1;curveFitting=1;jiggle=2;" vertex="1" parent="1">
          <mxGeometry x="595" y="270" width="19.32" height="34.35" as="geometry" />
        </mxCell>
        <mxCell id="qQ-SJ7XLCoJ8Rk0PCVsh-11" value="" style="rhombus;whiteSpace=wrap;html=1;fillColor=#dae8fc;strokeColor=#6c8ebf;sketch=1;curveFitting=1;jiggle=2;" vertex="1" parent="1">
          <mxGeometry x="589.66" y="310" width="30" height="30" as="geometry" />
        </mxCell>
        <mxCell id="qQ-SJ7XLCoJ8Rk0PCVsh-12" value="" style="endArrow=none;html=1;rounded=0;sketch=1;curveFitting=1;jiggle=2;" edge="1" parent="1">
          <mxGeometry width="50" height="50" relative="1" as="geometry">
            <mxPoint x="588.66" y="399" as="sourcePoint" />
            <mxPoint x="588.66" y="359" as="targetPoint" />
          </mxGeometry>
        </mxCell>
        <mxCell id="qQ-SJ7XLCoJ8Rk0PCVsh-13" value="" style="endArrow=none;html=1;rounded=0;entryX=1;entryY=0.5;entryDx=0;entryDy=0;sketch=1;curveFitting=1;jiggle=2;" edge="1" parent="1" source="qQ-SJ7XLCoJ8Rk0PCVsh-15" target="qQ-SJ7XLCoJ8Rk0PCVsh-3">
          <mxGeometry width="50" height="50" relative="1" as="geometry">
            <mxPoint x="700" y="300" as="sourcePoint" />
            <mxPoint x="605" y="370" as="targetPoint" />
          </mxGeometry>
        </mxCell>
        <mxCell id="qQ-SJ7XLCoJ8Rk0PCVsh-14" value="" style="ellipse;whiteSpace=wrap;html=1;aspect=fixed;sketch=1;curveFitting=1;jiggle=2;" vertex="1" parent="1">
          <mxGeometry x="579" y="390" width="20" height="20" as="geometry" />
        </mxCell>
        <mxCell id="qQ-SJ7XLCoJ8Rk0PCVsh-16" value="" style="endArrow=none;html=1;rounded=0;entryX=1;entryY=0.5;entryDx=0;entryDy=0;" edge="1" parent="1" target="qQ-SJ7XLCoJ8Rk0PCVsh-15">
          <mxGeometry width="50" height="50" relative="1" as="geometry">
            <mxPoint x="700" y="300" as="sourcePoint" />
            <mxPoint x="650" y="300" as="targetPoint" />
          </mxGeometry>
        </mxCell>
        <mxCell id="qQ-SJ7XLCoJ8Rk0PCVsh-15" value="" style="ellipse;whiteSpace=wrap;html=1;aspect=fixed;sketch=1;curveFitting=1;jiggle=2;" vertex="1" parent="1">
          <mxGeometry x="680" y="296.25" width="20" height="20" as="geometry" />
        </mxCell>
        <mxCell id="qQ-SJ7XLCoJ8Rk0PCVsh-19" value="" style="endArrow=classic;html=1;rounded=0;sketch=1;curveFitting=1;jiggle=2;" edge="1" parent="1">
          <mxGeometry width="50" height="50" relative="1" as="geometry">
            <mxPoint x="210" y="320" as="sourcePoint" />
            <mxPoint x="300" y="320" as="targetPoint" />
          </mxGeometry>
        </mxCell>
        <mxCell id="qQ-SJ7XLCoJ8Rk0PCVsh-23" value="" style="shape=image;html=1;verticalAlign=top;verticalLabelPosition=bottom;labelBackgroundColor=#ffffff;imageAspect=0;aspect=fixed;image=https://cdn4.iconfinder.com/data/icons/evil-icons-user-interface/64/download-128.png;fontColor=#000000;" vertex="1" parent="1">
          <mxGeometry x="300" y="250" width="128" height="128" as="geometry" />
        </mxCell>
        <mxCell id="qQ-SJ7XLCoJ8Rk0PCVsh-24" value="" style="endArrow=classic;html=1;rounded=0;sketch=1;curveFitting=1;jiggle=2;" edge="1" parent="1">
          <mxGeometry width="50" height="50" relative="1" as="geometry">
            <mxPoint x="420" y="313.5" as="sourcePoint" />
            <mxPoint x="510" y="313.5" as="targetPoint" />
          </mxGeometry>
        </mxCell>
        <mxCell id="qQ-SJ7XLCoJ8Rk0PCVsh-25" value="" style="ellipse;whiteSpace=wrap;html=1;aspect=fixed;fillColor=#ffe6cc;strokeColor=#d79b00;sketch=1;curveFitting=1;jiggle=2;" vertex="1" parent="1">
          <mxGeometry x="559" y="304.35" width="20" height="20" as="geometry" />
        </mxCell>
      </root>
    </mxGraphModel>
  </diagram>
</mxfile>
